<mxfile host="app.diagrams.net" modified="2024-06-11T02:40:46.453Z" agent="Mozilla/5.0 (Macintosh; Intel Mac OS X 10_15_7) AppleWebKit/537.36 (KHTML, like Gecko) Chrome/125.0.0.0 Safari/537.36" etag="A-fh_jj6OuYGkaIWFZJw" version="24.4.0" type="github">
  <diagram name="Page-1" id="RWGuL8dffWHupjRkSYEN">
    <mxGraphModel dx="2901" dy="2324" grid="1" gridSize="10" guides="1" tooltips="1" connect="1" arrows="1" fold="1" page="1" pageScale="1" pageWidth="827" pageHeight="1169" math="0" shadow="0">
      <root>
        <mxCell id="0" />
        <mxCell id="1" parent="0" />
        <mxCell id="n5NMJhbJn6meRjb42P7D-5" value="" style="edgeStyle=orthogonalEdgeStyle;rounded=0;orthogonalLoop=1;jettySize=auto;html=1;" edge="1" parent="1" source="n5NMJhbJn6meRjb42P7D-1" target="n5NMJhbJn6meRjb42P7D-4">
          <mxGeometry relative="1" as="geometry" />
        </mxCell>
        <mxCell id="n5NMJhbJn6meRjb42P7D-9" value="" style="edgeStyle=orthogonalEdgeStyle;rounded=0;orthogonalLoop=1;jettySize=auto;html=1;" edge="1" parent="1" source="n5NMJhbJn6meRjb42P7D-1" target="n5NMJhbJn6meRjb42P7D-8">
          <mxGeometry relative="1" as="geometry" />
        </mxCell>
        <mxCell id="n5NMJhbJn6meRjb42P7D-1" value="SSO" style="rounded=1;whiteSpace=wrap;html=1;" vertex="1" parent="1">
          <mxGeometry x="330" y="200" width="120" height="60" as="geometry" />
        </mxCell>
        <mxCell id="n5NMJhbJn6meRjb42P7D-10" style="edgeStyle=orthogonalEdgeStyle;rounded=0;orthogonalLoop=1;jettySize=auto;html=1;entryX=0.75;entryY=0;entryDx=0;entryDy=0;" edge="1" parent="1" source="n5NMJhbJn6meRjb42P7D-2" target="n5NMJhbJn6meRjb42P7D-1">
          <mxGeometry relative="1" as="geometry">
            <mxPoint x="390" y="190" as="targetPoint" />
            <Array as="points">
              <mxPoint x="530" y="160" />
              <mxPoint x="420" y="160" />
            </Array>
          </mxGeometry>
        </mxCell>
        <mxCell id="n5NMJhbJn6meRjb42P7D-2" value="用户中心" style="whiteSpace=wrap;html=1;rounded=1;" vertex="1" parent="1">
          <mxGeometry x="470" y="-5" width="120" height="60" as="geometry" />
        </mxCell>
        <mxCell id="n5NMJhbJn6meRjb42P7D-7" value="" style="edgeStyle=orthogonalEdgeStyle;rounded=0;orthogonalLoop=1;jettySize=auto;html=1;" edge="1" parent="1" source="n5NMJhbJn6meRjb42P7D-4" target="n5NMJhbJn6meRjb42P7D-6">
          <mxGeometry relative="1" as="geometry" />
        </mxCell>
        <mxCell id="n5NMJhbJn6meRjb42P7D-4" value="Auth Proxy" style="rounded=1;whiteSpace=wrap;html=1;" vertex="1" parent="1">
          <mxGeometry x="560" y="145" width="120" height="60" as="geometry" />
        </mxCell>
        <mxCell id="n5NMJhbJn6meRjb42P7D-6" value="外部认证体系&lt;br&gt;（Google Workstation、飞书字节租户）" style="rounded=1;whiteSpace=wrap;html=1;" vertex="1" parent="1">
          <mxGeometry x="760" y="145" width="210" height="60" as="geometry" />
        </mxCell>
        <mxCell id="n5NMJhbJn6meRjb42P7D-8" value="" style="rounded=1;whiteSpace=wrap;html=1;" vertex="1" parent="1">
          <mxGeometry x="305" y="330" width="170" height="90" as="geometry" />
        </mxCell>
        <mxCell id="n5NMJhbJn6meRjb42P7D-11" value="" style="rounded=1;whiteSpace=wrap;html=1;" vertex="1" parent="1">
          <mxGeometry x="160" y="-130" width="300" height="190" as="geometry" />
        </mxCell>
        <mxCell id="n5NMJhbJn6meRjb42P7D-13" value="" style="rounded=1;whiteSpace=wrap;html=1;" vertex="1" parent="1">
          <mxGeometry x="20" y="120" width="230" height="200" as="geometry" />
        </mxCell>
        <mxCell id="n5NMJhbJn6meRjb42P7D-16" value="Provision" style="rounded=1;whiteSpace=wrap;html=1;" vertex="1" parent="1">
          <mxGeometry x="150" y="215" width="60" height="30" as="geometry" />
        </mxCell>
        <mxCell id="n5NMJhbJn6meRjb42P7D-17" value="&lt;span style=&quot;color: rgb(0, 0, 0); font-family: Helvetica; font-size: 12px; font-style: normal; font-variant-ligatures: normal; font-variant-caps: normal; font-weight: 400; letter-spacing: normal; orphans: 2; text-align: center; text-indent: 0px; text-transform: none; widows: 2; word-spacing: 0px; -webkit-text-stroke-width: 0px; white-space: normal; background-color: rgb(251, 251, 251); text-decoration-thickness: initial; text-decoration-style: initial; text-decoration-color: initial; display: inline !important; float: none;&quot;&gt;上游账号和数据&lt;/span&gt;" style="text;whiteSpace=wrap;html=1;" vertex="1" parent="1">
          <mxGeometry x="140" y="280" width="120" height="40" as="geometry" />
        </mxCell>
        <mxCell id="n5NMJhbJn6meRjb42P7D-21" style="edgeStyle=orthogonalEdgeStyle;rounded=0;orthogonalLoop=1;jettySize=auto;html=1;" edge="1" parent="1" source="n5NMJhbJn6meRjb42P7D-18" target="n5NMJhbJn6meRjb42P7D-16">
          <mxGeometry relative="1" as="geometry" />
        </mxCell>
        <mxCell id="n5NMJhbJn6meRjb42P7D-18" value="SCIM" style="rounded=1;whiteSpace=wrap;html=1;" vertex="1" parent="1">
          <mxGeometry x="150" y="145" width="60" height="30" as="geometry" />
        </mxCell>
        <mxCell id="n5NMJhbJn6meRjb42P7D-28" style="edgeStyle=orthogonalEdgeStyle;rounded=0;orthogonalLoop=1;jettySize=auto;html=1;entryX=0;entryY=0.5;entryDx=0;entryDy=0;" edge="1" parent="1" source="n5NMJhbJn6meRjb42P7D-22" target="n5NMJhbJn6meRjb42P7D-16">
          <mxGeometry relative="1" as="geometry" />
        </mxCell>
        <mxCell id="n5NMJhbJn6meRjb42P7D-22" value="People" style="rounded=1;whiteSpace=wrap;html=1;" vertex="1" parent="1">
          <mxGeometry x="50" y="270" width="60" height="30" as="geometry" />
        </mxCell>
        <mxCell id="n5NMJhbJn6meRjb42P7D-29" style="edgeStyle=orthogonalEdgeStyle;rounded=0;orthogonalLoop=1;jettySize=auto;html=1;" edge="1" parent="1" source="n5NMJhbJn6meRjb42P7D-23" target="n5NMJhbJn6meRjb42P7D-16">
          <mxGeometry relative="1" as="geometry" />
        </mxCell>
        <mxCell id="n5NMJhbJn6meRjb42P7D-23" value="飞书" style="rounded=1;whiteSpace=wrap;html=1;" vertex="1" parent="1">
          <mxGeometry x="50" y="215" width="60" height="30" as="geometry" />
        </mxCell>
        <mxCell id="n5NMJhbJn6meRjb42P7D-30" style="edgeStyle=orthogonalEdgeStyle;rounded=0;orthogonalLoop=1;jettySize=auto;html=1;entryX=0;entryY=0.5;entryDx=0;entryDy=0;" edge="1" parent="1" source="n5NMJhbJn6meRjb42P7D-24" target="n5NMJhbJn6meRjb42P7D-16">
          <mxGeometry relative="1" as="geometry" />
        </mxCell>
        <mxCell id="n5NMJhbJn6meRjb42P7D-24" value="外包系统" style="rounded=1;whiteSpace=wrap;html=1;" vertex="1" parent="1">
          <mxGeometry x="50" y="160" width="60" height="30" as="geometry" />
        </mxCell>
        <mxCell id="n5NMJhbJn6meRjb42P7D-15" style="edgeStyle=orthogonalEdgeStyle;rounded=0;orthogonalLoop=1;jettySize=auto;html=1;" edge="1" parent="1" source="n5NMJhbJn6meRjb42P7D-16" target="n5NMJhbJn6meRjb42P7D-1">
          <mxGeometry relative="1" as="geometry" />
        </mxCell>
        <mxCell id="n5NMJhbJn6meRjb42P7D-31" value="" style="rounded=1;whiteSpace=wrap;html=1;" vertex="1" parent="1">
          <mxGeometry x="560" y="240" width="340" height="140" as="geometry" />
        </mxCell>
        <mxCell id="n5NMJhbJn6meRjb42P7D-32" value="&lt;div style=&quot;text-align: center;&quot;&gt;内部IDC建设相关的Identity和Credentials&lt;/div&gt;" style="text;whiteSpace=wrap;html=1;" vertex="1" parent="1">
          <mxGeometry x="670" y="340" width="230" height="40" as="geometry" />
        </mxCell>
        <mxCell id="n5NMJhbJn6meRjb42P7D-33" value="Kerberos" style="rounded=1;whiteSpace=wrap;html=1;" vertex="1" parent="1">
          <mxGeometry x="590" y="260" width="60" height="30" as="geometry" />
        </mxCell>
        <mxCell id="n5NMJhbJn6meRjb42P7D-34" style="edgeStyle=orthogonalEdgeStyle;rounded=0;orthogonalLoop=1;jettySize=auto;html=1;" edge="1" parent="1" source="n5NMJhbJn6meRjb42P7D-1" target="n5NMJhbJn6meRjb42P7D-33">
          <mxGeometry relative="1" as="geometry">
            <Array as="points">
              <mxPoint x="510" y="230" />
              <mxPoint x="510" y="275" />
            </Array>
          </mxGeometry>
        </mxCell>
        <mxCell id="n5NMJhbJn6meRjb42P7D-37" style="edgeStyle=orthogonalEdgeStyle;rounded=0;orthogonalLoop=1;jettySize=auto;html=1;" edge="1" parent="1" source="n5NMJhbJn6meRjb42P7D-35" target="n5NMJhbJn6meRjb42P7D-33">
          <mxGeometry relative="1" as="geometry" />
        </mxCell>
        <mxCell id="n5NMJhbJn6meRjb42P7D-35" value="主机、网络" style="rounded=1;whiteSpace=wrap;html=1;" vertex="1" parent="1">
          <mxGeometry x="745" y="260" width="80" height="30" as="geometry" />
        </mxCell>
        <mxCell id="n5NMJhbJn6meRjb42P7D-38" style="edgeStyle=orthogonalEdgeStyle;rounded=0;orthogonalLoop=1;jettySize=auto;html=1;" edge="1" parent="1" source="n5NMJhbJn6meRjb42P7D-36" target="n5NMJhbJn6meRjb42P7D-33">
          <mxGeometry relative="1" as="geometry" />
        </mxCell>
        <mxCell id="n5NMJhbJn6meRjb42P7D-36" value="机房管理工具" style="rounded=1;whiteSpace=wrap;html=1;" vertex="1" parent="1">
          <mxGeometry x="580" y="340" width="80" height="30" as="geometry" />
        </mxCell>
        <mxCell id="n5NMJhbJn6meRjb42P7D-40" value="强依赖" style="rounded=1;whiteSpace=wrap;html=1;" vertex="1" parent="1">
          <mxGeometry x="320" y="345" width="60" height="30" as="geometry" />
        </mxCell>
        <mxCell id="n5NMJhbJn6meRjb42P7D-41" value="&lt;span style=&quot;color: rgb(0, 0, 0); font-family: Helvetica; font-size: 12px; font-style: normal; font-variant-ligatures: normal; font-variant-caps: normal; font-weight: 400; letter-spacing: normal; orphans: 2; text-align: center; text-indent: 0px; text-transform: none; widows: 2; word-spacing: 0px; -webkit-text-stroke-width: 0px; white-space: normal; background-color: rgb(251, 251, 251); text-decoration-thickness: initial; text-decoration-style: initial; text-decoration-color: initial; display: inline !important; float: none;&quot;&gt;公司内部依赖&lt;/span&gt;" style="text;whiteSpace=wrap;html=1;" vertex="1" parent="1">
          <mxGeometry x="350" y="390" width="110" height="40" as="geometry" />
        </mxCell>
        <mxCell id="n5NMJhbJn6meRjb42P7D-42" value="弱依赖" style="rounded=1;whiteSpace=wrap;html=1;" vertex="1" parent="1">
          <mxGeometry x="390" y="345" width="60" height="30" as="geometry" />
        </mxCell>
        <mxCell id="n5NMJhbJn6meRjb42P7D-47" style="edgeStyle=orthogonalEdgeStyle;rounded=0;orthogonalLoop=1;jettySize=auto;html=1;" edge="1" parent="1" source="n5NMJhbJn6meRjb42P7D-45" target="n5NMJhbJn6meRjb42P7D-18">
          <mxGeometry relative="1" as="geometry">
            <Array as="points">
              <mxPoint x="130" y="-65" />
              <mxPoint x="130" y="90" />
              <mxPoint x="180" y="90" />
            </Array>
          </mxGeometry>
        </mxCell>
        <mxCell id="n5NMJhbJn6meRjb42P7D-56" style="edgeStyle=orthogonalEdgeStyle;rounded=0;orthogonalLoop=1;jettySize=auto;html=1;" edge="1" parent="1" source="n5NMJhbJn6meRjb42P7D-45" target="n5NMJhbJn6meRjb42P7D-52">
          <mxGeometry relative="1" as="geometry" />
        </mxCell>
        <mxCell id="n5NMJhbJn6meRjb42P7D-45" value="集成应用和平台" style="rounded=1;whiteSpace=wrap;html=1;" vertex="1" parent="1">
          <mxGeometry x="190" y="-80" width="100" height="30" as="geometry" />
        </mxCell>
        <mxCell id="n5NMJhbJn6meRjb42P7D-53" style="edgeStyle=orthogonalEdgeStyle;rounded=0;orthogonalLoop=1;jettySize=auto;html=1;entryX=0.5;entryY=0;entryDx=0;entryDy=0;" edge="1" parent="1" source="n5NMJhbJn6meRjb42P7D-46" target="n5NMJhbJn6meRjb42P7D-1">
          <mxGeometry relative="1" as="geometry" />
        </mxCell>
        <mxCell id="n5NMJhbJn6meRjb42P7D-46" value="开发者中心" style="rounded=1;whiteSpace=wrap;html=1;" vertex="1" parent="1">
          <mxGeometry x="385" y="-80" width="70" height="30" as="geometry" />
        </mxCell>
        <mxCell id="n5NMJhbJn6meRjb42P7D-50" style="edgeStyle=orthogonalEdgeStyle;rounded=0;orthogonalLoop=1;jettySize=auto;html=1;" edge="1" parent="1" source="n5NMJhbJn6meRjb42P7D-48" target="n5NMJhbJn6meRjb42P7D-45">
          <mxGeometry relative="1" as="geometry" />
        </mxCell>
        <mxCell id="n5NMJhbJn6meRjb42P7D-55" style="edgeStyle=orthogonalEdgeStyle;rounded=0;orthogonalLoop=1;jettySize=auto;html=1;entryX=0.25;entryY=0;entryDx=0;entryDy=0;" edge="1" parent="1" source="n5NMJhbJn6meRjb42P7D-48" target="n5NMJhbJn6meRjb42P7D-1">
          <mxGeometry relative="1" as="geometry">
            <Array as="points">
              <mxPoint x="270" y="80" />
              <mxPoint x="360" y="80" />
            </Array>
          </mxGeometry>
        </mxCell>
        <mxCell id="n5NMJhbJn6meRjb42P7D-48" value="LDAP" style="rounded=1;whiteSpace=wrap;html=1;" vertex="1" parent="1">
          <mxGeometry x="240" width="60" height="30" as="geometry" />
        </mxCell>
        <mxCell id="n5NMJhbJn6meRjb42P7D-51" style="edgeStyle=orthogonalEdgeStyle;rounded=0;orthogonalLoop=1;jettySize=auto;html=1;" edge="1" parent="1" source="n5NMJhbJn6meRjb42P7D-49" target="n5NMJhbJn6meRjb42P7D-45">
          <mxGeometry relative="1" as="geometry" />
        </mxCell>
        <mxCell id="n5NMJhbJn6meRjb42P7D-49" value="AGW/TLB" style="rounded=1;whiteSpace=wrap;html=1;" vertex="1" parent="1">
          <mxGeometry x="170" width="60" height="30" as="geometry" />
        </mxCell>
        <mxCell id="n5NMJhbJn6meRjb42P7D-54" style="edgeStyle=orthogonalEdgeStyle;rounded=0;orthogonalLoop=1;jettySize=auto;html=1;entryX=0.25;entryY=0;entryDx=0;entryDy=0;" edge="1" parent="1" source="n5NMJhbJn6meRjb42P7D-52" target="n5NMJhbJn6meRjb42P7D-1">
          <mxGeometry relative="1" as="geometry" />
        </mxCell>
        <mxCell id="n5NMJhbJn6meRjb42P7D-52" value="cas/oauth2&lt;div&gt;oidc/saml&lt;/div&gt;" style="rounded=1;whiteSpace=wrap;html=1;" vertex="1" parent="1">
          <mxGeometry x="325" width="70" height="30" as="geometry" />
        </mxCell>
        <mxCell id="n5NMJhbJn6meRjb42P7D-57" value="应用开发和集成" style="text;html=1;align=center;verticalAlign=middle;whiteSpace=wrap;rounded=0;" vertex="1" parent="1">
          <mxGeometry x="245" y="-120" width="150" height="30" as="geometry" />
        </mxCell>
        <mxCell id="n5NMJhbJn6meRjb42P7D-58" value="E1：与Keberos打通，报密码存在在KDC，SSO本身不存密码，相关服务调用KDC命令执行验证，效率偏低，但是可以减少数据同步" style="text;html=1;align=center;verticalAlign=middle;whiteSpace=wrap;rounded=0;" vertex="1" parent="1">
          <mxGeometry x="574" y="410" width="406" height="30" as="geometry" />
        </mxCell>
        <mxCell id="n5NMJhbJn6meRjb42P7D-59" value="E1" style="text;html=1;align=center;verticalAlign=middle;whiteSpace=wrap;rounded=0;" vertex="1" parent="1">
          <mxGeometry x="500" y="270" width="60" height="30" as="geometry" />
        </mxCell>
        <mxCell id="n5NMJhbJn6meRjb42P7D-60" value="区分强依赖和弱依赖，可以避免循环依赖。如底层服务出问题，导致SSO出问题，底层服务也无法登录。" style="text;html=1;align=center;verticalAlign=middle;whiteSpace=wrap;rounded=0;" vertex="1" parent="1">
          <mxGeometry x="220" y="440" width="313" height="30" as="geometry" />
        </mxCell>
        <mxCell id="n5NMJhbJn6meRjb42P7D-61" value="TikTok SSO" style="text;html=1;align=center;verticalAlign=middle;whiteSpace=wrap;rounded=0;" vertex="1" parent="1">
          <mxGeometry x="-40" y="570" width="150" height="30" as="geometry" />
        </mxCell>
        <mxCell id="n5NMJhbJn6meRjb42P7D-63" value="" style="edgeStyle=orthogonalEdgeStyle;rounded=0;orthogonalLoop=1;jettySize=auto;html=1;" edge="1" parent="1" source="n5NMJhbJn6meRjb42P7D-64" target="n5NMJhbJn6meRjb42P7D-70">
          <mxGeometry relative="1" as="geometry" />
        </mxCell>
        <mxCell id="n5NMJhbJn6meRjb42P7D-64" value="SSO" style="rounded=1;whiteSpace=wrap;html=1;" vertex="1" parent="1">
          <mxGeometry x="360" y="990" width="120" height="60" as="geometry" />
        </mxCell>
        <mxCell id="n5NMJhbJn6meRjb42P7D-65" style="edgeStyle=orthogonalEdgeStyle;rounded=0;orthogonalLoop=1;jettySize=auto;html=1;entryX=0.75;entryY=0;entryDx=0;entryDy=0;" edge="1" parent="1" source="n5NMJhbJn6meRjb42P7D-66" target="n5NMJhbJn6meRjb42P7D-64">
          <mxGeometry relative="1" as="geometry">
            <mxPoint x="420" y="980" as="targetPoint" />
            <Array as="points">
              <mxPoint x="560" y="950" />
              <mxPoint x="450" y="950" />
            </Array>
          </mxGeometry>
        </mxCell>
        <mxCell id="n5NMJhbJn6meRjb42P7D-66" value="用户中心" style="whiteSpace=wrap;html=1;rounded=1;" vertex="1" parent="1">
          <mxGeometry x="500" y="785" width="120" height="60" as="geometry" />
        </mxCell>
        <mxCell id="n5NMJhbJn6meRjb42P7D-70" value="" style="rounded=1;whiteSpace=wrap;html=1;" vertex="1" parent="1">
          <mxGeometry x="335" y="1120" width="170" height="90" as="geometry" />
        </mxCell>
        <mxCell id="n5NMJhbJn6meRjb42P7D-71" value="" style="rounded=1;whiteSpace=wrap;html=1;" vertex="1" parent="1">
          <mxGeometry x="190" y="660" width="300" height="190" as="geometry" />
        </mxCell>
        <mxCell id="n5NMJhbJn6meRjb42P7D-72" value="" style="rounded=1;whiteSpace=wrap;html=1;" vertex="1" parent="1">
          <mxGeometry x="50" y="910" width="200" height="180" as="geometry" />
        </mxCell>
        <mxCell id="n5NMJhbJn6meRjb42P7D-73" value="Provision" style="rounded=1;whiteSpace=wrap;html=1;" vertex="1" parent="1">
          <mxGeometry x="260" y="1005" width="60" height="30" as="geometry" />
        </mxCell>
        <mxCell id="n5NMJhbJn6meRjb42P7D-74" value="&lt;span style=&quot;color: rgb(0, 0, 0); font-family: Helvetica; font-size: 12px; font-style: normal; font-variant-ligatures: normal; font-variant-caps: normal; font-weight: 400; letter-spacing: normal; orphans: 2; text-align: center; text-indent: 0px; text-transform: none; widows: 2; word-spacing: 0px; -webkit-text-stroke-width: 0px; white-space: normal; background-color: rgb(251, 251, 251); text-decoration-thickness: initial; text-decoration-style: initial; text-decoration-color: initial; display: inline !important; float: none;&quot;&gt;上游账号和数据&lt;/span&gt;" style="text;whiteSpace=wrap;html=1;" vertex="1" parent="1">
          <mxGeometry x="100" y="1055" width="120" height="40" as="geometry" />
        </mxCell>
        <mxCell id="n5NMJhbJn6meRjb42P7D-75" style="edgeStyle=orthogonalEdgeStyle;rounded=0;orthogonalLoop=1;jettySize=auto;html=1;" edge="1" parent="1" source="n5NMJhbJn6meRjb42P7D-76" target="n5NMJhbJn6meRjb42P7D-73">
          <mxGeometry relative="1" as="geometry" />
        </mxCell>
        <mxCell id="n5NMJhbJn6meRjb42P7D-76" value="SCIM" style="rounded=1;whiteSpace=wrap;html=1;" vertex="1" parent="1">
          <mxGeometry x="180" y="935" width="60" height="30" as="geometry" />
        </mxCell>
        <mxCell id="n5NMJhbJn6meRjb42P7D-111" style="edgeStyle=orthogonalEdgeStyle;rounded=0;orthogonalLoop=1;jettySize=auto;html=1;" edge="1" parent="1" source="n5NMJhbJn6meRjb42P7D-82" target="n5NMJhbJn6meRjb42P7D-76">
          <mxGeometry relative="1" as="geometry" />
        </mxCell>
        <mxCell id="n5NMJhbJn6meRjb42P7D-82" value="IGA" style="rounded=1;whiteSpace=wrap;html=1;" vertex="1" parent="1">
          <mxGeometry x="80" y="935" width="60" height="30" as="geometry" />
        </mxCell>
        <mxCell id="n5NMJhbJn6meRjb42P7D-83" style="edgeStyle=orthogonalEdgeStyle;rounded=0;orthogonalLoop=1;jettySize=auto;html=1;" edge="1" parent="1" source="n5NMJhbJn6meRjb42P7D-73" target="n5NMJhbJn6meRjb42P7D-64">
          <mxGeometry relative="1" as="geometry" />
        </mxCell>
        <mxCell id="n5NMJhbJn6meRjb42P7D-84" value="" style="rounded=1;whiteSpace=wrap;html=1;" vertex="1" parent="1">
          <mxGeometry x="590" y="1030" width="340" height="140" as="geometry" />
        </mxCell>
        <mxCell id="n5NMJhbJn6meRjb42P7D-85" value="&lt;div style=&quot;text-align: center;&quot;&gt;内部IDC建设相关的Identity和Credentials&lt;/div&gt;" style="text;whiteSpace=wrap;html=1;" vertex="1" parent="1">
          <mxGeometry x="700" y="1130" width="230" height="40" as="geometry" />
        </mxCell>
        <mxCell id="n5NMJhbJn6meRjb42P7D-86" value="Kerberos" style="rounded=1;whiteSpace=wrap;html=1;" vertex="1" parent="1">
          <mxGeometry x="620" y="1050" width="60" height="30" as="geometry" />
        </mxCell>
        <mxCell id="n5NMJhbJn6meRjb42P7D-87" style="edgeStyle=orthogonalEdgeStyle;rounded=0;orthogonalLoop=1;jettySize=auto;html=1;" edge="1" parent="1" source="n5NMJhbJn6meRjb42P7D-64" target="n5NMJhbJn6meRjb42P7D-86">
          <mxGeometry relative="1" as="geometry">
            <Array as="points">
              <mxPoint x="540" y="1020" />
              <mxPoint x="540" y="1065" />
            </Array>
          </mxGeometry>
        </mxCell>
        <mxCell id="n5NMJhbJn6meRjb42P7D-88" style="edgeStyle=orthogonalEdgeStyle;rounded=0;orthogonalLoop=1;jettySize=auto;html=1;" edge="1" parent="1" source="n5NMJhbJn6meRjb42P7D-89" target="n5NMJhbJn6meRjb42P7D-86">
          <mxGeometry relative="1" as="geometry" />
        </mxCell>
        <mxCell id="n5NMJhbJn6meRjb42P7D-89" value="主机、网络" style="rounded=1;whiteSpace=wrap;html=1;" vertex="1" parent="1">
          <mxGeometry x="775" y="1050" width="80" height="30" as="geometry" />
        </mxCell>
        <mxCell id="n5NMJhbJn6meRjb42P7D-90" style="edgeStyle=orthogonalEdgeStyle;rounded=0;orthogonalLoop=1;jettySize=auto;html=1;" edge="1" parent="1" source="n5NMJhbJn6meRjb42P7D-91" target="n5NMJhbJn6meRjb42P7D-86">
          <mxGeometry relative="1" as="geometry" />
        </mxCell>
        <mxCell id="n5NMJhbJn6meRjb42P7D-91" value="机房管理工具" style="rounded=1;whiteSpace=wrap;html=1;" vertex="1" parent="1">
          <mxGeometry x="610" y="1130" width="80" height="30" as="geometry" />
        </mxCell>
        <mxCell id="n5NMJhbJn6meRjb42P7D-92" value="强依赖" style="rounded=1;whiteSpace=wrap;html=1;" vertex="1" parent="1">
          <mxGeometry x="350" y="1135" width="60" height="30" as="geometry" />
        </mxCell>
        <mxCell id="n5NMJhbJn6meRjb42P7D-93" value="&lt;span style=&quot;color: rgb(0, 0, 0); font-family: Helvetica; font-size: 12px; font-style: normal; font-variant-ligatures: normal; font-variant-caps: normal; font-weight: 400; letter-spacing: normal; orphans: 2; text-align: center; text-indent: 0px; text-transform: none; widows: 2; word-spacing: 0px; -webkit-text-stroke-width: 0px; white-space: normal; background-color: rgb(251, 251, 251); text-decoration-thickness: initial; text-decoration-style: initial; text-decoration-color: initial; display: inline !important; float: none;&quot;&gt;公司内部依赖&lt;/span&gt;" style="text;whiteSpace=wrap;html=1;" vertex="1" parent="1">
          <mxGeometry x="380" y="1180" width="110" height="40" as="geometry" />
        </mxCell>
        <mxCell id="n5NMJhbJn6meRjb42P7D-94" value="弱依赖" style="rounded=1;whiteSpace=wrap;html=1;" vertex="1" parent="1">
          <mxGeometry x="420" y="1135" width="60" height="30" as="geometry" />
        </mxCell>
        <mxCell id="n5NMJhbJn6meRjb42P7D-95" style="edgeStyle=orthogonalEdgeStyle;rounded=0;orthogonalLoop=1;jettySize=auto;html=1;" edge="1" parent="1" source="n5NMJhbJn6meRjb42P7D-97" target="n5NMJhbJn6meRjb42P7D-76">
          <mxGeometry relative="1" as="geometry">
            <Array as="points">
              <mxPoint x="160" y="725" />
              <mxPoint x="160" y="880" />
              <mxPoint x="210" y="880" />
            </Array>
          </mxGeometry>
        </mxCell>
        <mxCell id="n5NMJhbJn6meRjb42P7D-96" style="edgeStyle=orthogonalEdgeStyle;rounded=0;orthogonalLoop=1;jettySize=auto;html=1;" edge="1" parent="1" source="n5NMJhbJn6meRjb42P7D-97" target="n5NMJhbJn6meRjb42P7D-106">
          <mxGeometry relative="1" as="geometry" />
        </mxCell>
        <mxCell id="n5NMJhbJn6meRjb42P7D-97" value="集成应用和平台" style="rounded=1;whiteSpace=wrap;html=1;" vertex="1" parent="1">
          <mxGeometry x="220" y="710" width="100" height="30" as="geometry" />
        </mxCell>
        <mxCell id="n5NMJhbJn6meRjb42P7D-98" style="edgeStyle=orthogonalEdgeStyle;rounded=0;orthogonalLoop=1;jettySize=auto;html=1;entryX=0.5;entryY=0;entryDx=0;entryDy=0;" edge="1" parent="1" source="n5NMJhbJn6meRjb42P7D-99" target="n5NMJhbJn6meRjb42P7D-64">
          <mxGeometry relative="1" as="geometry" />
        </mxCell>
        <mxCell id="n5NMJhbJn6meRjb42P7D-99" value="开发者中心" style="rounded=1;whiteSpace=wrap;html=1;" vertex="1" parent="1">
          <mxGeometry x="415" y="710" width="70" height="30" as="geometry" />
        </mxCell>
        <mxCell id="n5NMJhbJn6meRjb42P7D-100" style="edgeStyle=orthogonalEdgeStyle;rounded=0;orthogonalLoop=1;jettySize=auto;html=1;" edge="1" parent="1" source="n5NMJhbJn6meRjb42P7D-102" target="n5NMJhbJn6meRjb42P7D-97">
          <mxGeometry relative="1" as="geometry" />
        </mxCell>
        <mxCell id="n5NMJhbJn6meRjb42P7D-101" style="edgeStyle=orthogonalEdgeStyle;rounded=0;orthogonalLoop=1;jettySize=auto;html=1;entryX=0.25;entryY=0;entryDx=0;entryDy=0;" edge="1" parent="1" source="n5NMJhbJn6meRjb42P7D-102" target="n5NMJhbJn6meRjb42P7D-64">
          <mxGeometry relative="1" as="geometry">
            <Array as="points">
              <mxPoint x="300" y="870" />
              <mxPoint x="390" y="870" />
            </Array>
          </mxGeometry>
        </mxCell>
        <mxCell id="n5NMJhbJn6meRjb42P7D-102" value="LDAP" style="rounded=1;whiteSpace=wrap;html=1;" vertex="1" parent="1">
          <mxGeometry x="270" y="790" width="60" height="30" as="geometry" />
        </mxCell>
        <mxCell id="n5NMJhbJn6meRjb42P7D-103" style="edgeStyle=orthogonalEdgeStyle;rounded=0;orthogonalLoop=1;jettySize=auto;html=1;" edge="1" parent="1" source="n5NMJhbJn6meRjb42P7D-104" target="n5NMJhbJn6meRjb42P7D-97">
          <mxGeometry relative="1" as="geometry" />
        </mxCell>
        <mxCell id="n5NMJhbJn6meRjb42P7D-104" value="AGW/TLB" style="rounded=1;whiteSpace=wrap;html=1;" vertex="1" parent="1">
          <mxGeometry x="200" y="790" width="60" height="30" as="geometry" />
        </mxCell>
        <mxCell id="n5NMJhbJn6meRjb42P7D-105" style="edgeStyle=orthogonalEdgeStyle;rounded=0;orthogonalLoop=1;jettySize=auto;html=1;entryX=0.25;entryY=0;entryDx=0;entryDy=0;" edge="1" parent="1" source="n5NMJhbJn6meRjb42P7D-106" target="n5NMJhbJn6meRjb42P7D-64">
          <mxGeometry relative="1" as="geometry" />
        </mxCell>
        <mxCell id="n5NMJhbJn6meRjb42P7D-106" value="cas/oauth2&lt;div&gt;oidc/saml&lt;/div&gt;" style="rounded=1;whiteSpace=wrap;html=1;" vertex="1" parent="1">
          <mxGeometry x="355" y="790" width="70" height="30" as="geometry" />
        </mxCell>
        <mxCell id="n5NMJhbJn6meRjb42P7D-107" value="应用开发和集成" style="text;html=1;align=center;verticalAlign=middle;whiteSpace=wrap;rounded=0;" vertex="1" parent="1">
          <mxGeometry x="275" y="670" width="150" height="30" as="geometry" />
        </mxCell>
        <mxCell id="n5NMJhbJn6meRjb42P7D-109" value="E1" style="text;html=1;align=center;verticalAlign=middle;whiteSpace=wrap;rounded=0;" vertex="1" parent="1">
          <mxGeometry x="530" y="1060" width="60" height="30" as="geometry" />
        </mxCell>
        <mxCell id="n5NMJhbJn6meRjb42P7D-113" style="edgeStyle=orthogonalEdgeStyle;rounded=0;orthogonalLoop=1;jettySize=auto;html=1;entryX=0.5;entryY=1;entryDx=0;entryDy=0;" edge="1" parent="1" source="n5NMJhbJn6meRjb42P7D-112" target="n5NMJhbJn6meRjb42P7D-82">
          <mxGeometry relative="1" as="geometry" />
        </mxCell>
        <mxCell id="n5NMJhbJn6meRjb42P7D-112" value="workday" style="rounded=1;whiteSpace=wrap;html=1;" vertex="1" parent="1">
          <mxGeometry x="80" y="1005" width="60" height="30" as="geometry" />
        </mxCell>
        <mxCell id="n5NMJhbJn6meRjb42P7D-114" value="1、上游数据源做了暂时的收敛，引入IGA做统一把控，上游hr系统依赖IGA" style="text;html=1;align=center;verticalAlign=middle;whiteSpace=wrap;rounded=0;" vertex="1" parent="1">
          <mxGeometry x="15" y="1105" width="230" height="30" as="geometry" />
        </mxCell>
        <mxCell id="n5NMJhbJn6meRjb42P7D-115" value="2、外部认证IDP上做了约束，自己仅作为源IDP，不能依赖三方IDP能力" style="text;html=1;align=center;verticalAlign=middle;whiteSpace=wrap;rounded=0;" vertex="1" parent="1">
          <mxGeometry x="590" y="930" width="410" height="30" as="geometry" />
        </mxCell>
        <mxCell id="n5NMJhbJn6meRjb42P7D-116" value="TikTok SSO独立部署，TT SSO安全约束强于CN SSO，所以TT员工访问CN系统，CN SSO可将TT sso作为IDP，实现联登。CN员工访问TT系统，需要申请开通TT账号。需要在TT维护一套单独的Credentials" style="text;html=1;align=center;verticalAlign=middle;whiteSpace=wrap;rounded=0;" vertex="1" parent="1">
          <mxGeometry x="-5" y="600" width="565" height="30" as="geometry" />
        </mxCell>
        <mxCell id="n5NMJhbJn6meRjb42P7D-117" value="TTP版本" style="text;html=1;align=center;verticalAlign=middle;whiteSpace=wrap;rounded=0;" vertex="1" parent="1">
          <mxGeometry x="15" y="1270" width="60" height="30" as="geometry" />
        </mxCell>
        <mxCell id="n5NMJhbJn6meRjb42P7D-118" value="" style="edgeStyle=orthogonalEdgeStyle;rounded=0;orthogonalLoop=1;jettySize=auto;html=1;" edge="1" parent="1" source="n5NMJhbJn6meRjb42P7D-120" target="n5NMJhbJn6meRjb42P7D-124">
          <mxGeometry relative="1" as="geometry" />
        </mxCell>
        <mxCell id="n5NMJhbJn6meRjb42P7D-119" value="" style="edgeStyle=orthogonalEdgeStyle;rounded=0;orthogonalLoop=1;jettySize=auto;html=1;" edge="1" parent="1" source="n5NMJhbJn6meRjb42P7D-120" target="n5NMJhbJn6meRjb42P7D-126">
          <mxGeometry relative="1" as="geometry" />
        </mxCell>
        <mxCell id="n5NMJhbJn6meRjb42P7D-120" value="SSO" style="rounded=1;whiteSpace=wrap;html=1;" vertex="1" parent="1">
          <mxGeometry x="270" y="1804" width="120" height="60" as="geometry" />
        </mxCell>
        <mxCell id="n5NMJhbJn6meRjb42P7D-123" value="" style="edgeStyle=orthogonalEdgeStyle;rounded=0;orthogonalLoop=1;jettySize=auto;html=1;" edge="1" parent="1" source="n5NMJhbJn6meRjb42P7D-124" target="n5NMJhbJn6meRjb42P7D-125">
          <mxGeometry relative="1" as="geometry" />
        </mxCell>
        <mxCell id="n5NMJhbJn6meRjb42P7D-124" value="Auth Proxy" style="rounded=1;whiteSpace=wrap;html=1;" vertex="1" parent="1">
          <mxGeometry x="500" y="1749" width="120" height="60" as="geometry" />
        </mxCell>
        <mxCell id="n5NMJhbJn6meRjb42P7D-170" style="edgeStyle=orthogonalEdgeStyle;rounded=0;orthogonalLoop=1;jettySize=auto;html=1;" edge="1" parent="1" source="n5NMJhbJn6meRjb42P7D-125" target="n5NMJhbJn6meRjb42P7D-169">
          <mxGeometry relative="1" as="geometry" />
        </mxCell>
        <mxCell id="n5NMJhbJn6meRjb42P7D-125" value="外部认证体系&lt;br&gt;（Google Workstation）" style="rounded=1;whiteSpace=wrap;html=1;" vertex="1" parent="1">
          <mxGeometry x="700" y="1749" width="210" height="60" as="geometry" />
        </mxCell>
        <mxCell id="n5NMJhbJn6meRjb42P7D-126" value="" style="rounded=1;whiteSpace=wrap;html=1;" vertex="1" parent="1">
          <mxGeometry x="245" y="1934" width="170" height="90" as="geometry" />
        </mxCell>
        <mxCell id="n5NMJhbJn6meRjb42P7D-127" value="" style="rounded=1;whiteSpace=wrap;html=1;" vertex="1" parent="1">
          <mxGeometry x="100" y="1474" width="300" height="190" as="geometry" />
        </mxCell>
        <mxCell id="n5NMJhbJn6meRjb42P7D-140" value="" style="rounded=1;whiteSpace=wrap;html=1;" vertex="1" parent="1">
          <mxGeometry x="500" y="1844" width="340" height="140" as="geometry" />
        </mxCell>
        <mxCell id="n5NMJhbJn6meRjb42P7D-141" value="&lt;div style=&quot;text-align: center;&quot;&gt;内部IDC建设相关的Identity和Credentials&lt;/div&gt;" style="text;whiteSpace=wrap;html=1;" vertex="1" parent="1">
          <mxGeometry x="610" y="1944" width="230" height="40" as="geometry" />
        </mxCell>
        <mxCell id="n5NMJhbJn6meRjb42P7D-142" value="Kerberos" style="rounded=1;whiteSpace=wrap;html=1;" vertex="1" parent="1">
          <mxGeometry x="530" y="1864" width="60" height="30" as="geometry" />
        </mxCell>
        <mxCell id="n5NMJhbJn6meRjb42P7D-143" style="edgeStyle=orthogonalEdgeStyle;rounded=0;orthogonalLoop=1;jettySize=auto;html=1;" edge="1" parent="1" source="n5NMJhbJn6meRjb42P7D-120" target="n5NMJhbJn6meRjb42P7D-142">
          <mxGeometry relative="1" as="geometry">
            <Array as="points">
              <mxPoint x="450" y="1834" />
              <mxPoint x="450" y="1879" />
            </Array>
          </mxGeometry>
        </mxCell>
        <mxCell id="n5NMJhbJn6meRjb42P7D-144" style="edgeStyle=orthogonalEdgeStyle;rounded=0;orthogonalLoop=1;jettySize=auto;html=1;" edge="1" parent="1" source="n5NMJhbJn6meRjb42P7D-145" target="n5NMJhbJn6meRjb42P7D-142">
          <mxGeometry relative="1" as="geometry" />
        </mxCell>
        <mxCell id="n5NMJhbJn6meRjb42P7D-145" value="主机、网络" style="rounded=1;whiteSpace=wrap;html=1;" vertex="1" parent="1">
          <mxGeometry x="685" y="1864" width="80" height="30" as="geometry" />
        </mxCell>
        <mxCell id="n5NMJhbJn6meRjb42P7D-146" style="edgeStyle=orthogonalEdgeStyle;rounded=0;orthogonalLoop=1;jettySize=auto;html=1;" edge="1" parent="1" source="n5NMJhbJn6meRjb42P7D-147" target="n5NMJhbJn6meRjb42P7D-142">
          <mxGeometry relative="1" as="geometry" />
        </mxCell>
        <mxCell id="n5NMJhbJn6meRjb42P7D-147" value="机房管理工具" style="rounded=1;whiteSpace=wrap;html=1;" vertex="1" parent="1">
          <mxGeometry x="520" y="1944" width="80" height="30" as="geometry" />
        </mxCell>
        <mxCell id="n5NMJhbJn6meRjb42P7D-148" value="强依赖" style="rounded=1;whiteSpace=wrap;html=1;" vertex="1" parent="1">
          <mxGeometry x="260" y="1949" width="60" height="30" as="geometry" />
        </mxCell>
        <mxCell id="n5NMJhbJn6meRjb42P7D-149" value="&lt;span style=&quot;color: rgb(0, 0, 0); font-family: Helvetica; font-size: 12px; font-style: normal; font-variant-ligatures: normal; font-variant-caps: normal; font-weight: 400; letter-spacing: normal; orphans: 2; text-align: center; text-indent: 0px; text-transform: none; widows: 2; word-spacing: 0px; -webkit-text-stroke-width: 0px; white-space: normal; background-color: rgb(251, 251, 251); text-decoration-thickness: initial; text-decoration-style: initial; text-decoration-color: initial; display: inline !important; float: none;&quot;&gt;公司内部依赖&lt;/span&gt;" style="text;whiteSpace=wrap;html=1;" vertex="1" parent="1">
          <mxGeometry x="280" y="1990" width="110" height="40" as="geometry" />
        </mxCell>
        <mxCell id="n5NMJhbJn6meRjb42P7D-150" value="弱依赖" style="rounded=1;whiteSpace=wrap;html=1;" vertex="1" parent="1">
          <mxGeometry x="330" y="1949" width="60" height="30" as="geometry" />
        </mxCell>
        <mxCell id="n5NMJhbJn6meRjb42P7D-152" style="edgeStyle=orthogonalEdgeStyle;rounded=0;orthogonalLoop=1;jettySize=auto;html=1;" edge="1" parent="1" source="n5NMJhbJn6meRjb42P7D-153" target="n5NMJhbJn6meRjb42P7D-162">
          <mxGeometry relative="1" as="geometry" />
        </mxCell>
        <mxCell id="n5NMJhbJn6meRjb42P7D-153" value="集成应用和平台" style="rounded=1;whiteSpace=wrap;html=1;" vertex="1" parent="1">
          <mxGeometry x="130" y="1524" width="100" height="30" as="geometry" />
        </mxCell>
        <mxCell id="n5NMJhbJn6meRjb42P7D-154" style="edgeStyle=orthogonalEdgeStyle;rounded=0;orthogonalLoop=1;jettySize=auto;html=1;entryX=0.5;entryY=0;entryDx=0;entryDy=0;" edge="1" parent="1" source="n5NMJhbJn6meRjb42P7D-155" target="n5NMJhbJn6meRjb42P7D-120">
          <mxGeometry relative="1" as="geometry" />
        </mxCell>
        <mxCell id="n5NMJhbJn6meRjb42P7D-155" value="开发者中心" style="rounded=1;whiteSpace=wrap;html=1;" vertex="1" parent="1">
          <mxGeometry x="325" y="1524" width="70" height="30" as="geometry" />
        </mxCell>
        <mxCell id="n5NMJhbJn6meRjb42P7D-161" style="edgeStyle=orthogonalEdgeStyle;rounded=0;orthogonalLoop=1;jettySize=auto;html=1;entryX=0.25;entryY=0;entryDx=0;entryDy=0;" edge="1" parent="1" source="n5NMJhbJn6meRjb42P7D-162" target="n5NMJhbJn6meRjb42P7D-120">
          <mxGeometry relative="1" as="geometry" />
        </mxCell>
        <mxCell id="n5NMJhbJn6meRjb42P7D-162" value="cas/oauth2&lt;div&gt;oidc/saml&lt;/div&gt;" style="rounded=1;whiteSpace=wrap;html=1;" vertex="1" parent="1">
          <mxGeometry x="265" y="1604" width="70" height="30" as="geometry" />
        </mxCell>
        <mxCell id="n5NMJhbJn6meRjb42P7D-163" value="应用开发和集成" style="text;html=1;align=center;verticalAlign=middle;whiteSpace=wrap;rounded=0;" vertex="1" parent="1">
          <mxGeometry x="185" y="1484" width="150" height="30" as="geometry" />
        </mxCell>
        <mxCell id="n5NMJhbJn6meRjb42P7D-165" value="E1" style="text;html=1;align=center;verticalAlign=middle;whiteSpace=wrap;rounded=0;" vertex="1" parent="1">
          <mxGeometry x="440" y="1874" width="60" height="30" as="geometry" />
        </mxCell>
        <mxCell id="n5NMJhbJn6meRjb42P7D-168" style="edgeStyle=orthogonalEdgeStyle;rounded=0;orthogonalLoop=1;jettySize=auto;html=1;" edge="1" parent="1" source="n5NMJhbJn6meRjb42P7D-167" target="n5NMJhbJn6meRjb42P7D-125">
          <mxGeometry relative="1" as="geometry" />
        </mxCell>
        <mxCell id="n5NMJhbJn6meRjb42P7D-167" value="Workday" style="rounded=1;whiteSpace=wrap;html=1;" vertex="1" parent="1">
          <mxGeometry x="763" y="1604" width="85" height="60" as="geometry" />
        </mxCell>
        <mxCell id="n5NMJhbJn6meRjb42P7D-169" value="TruU" style="rounded=1;whiteSpace=wrap;html=1;" vertex="1" parent="1">
          <mxGeometry x="995" y="1749" width="85" height="60" as="geometry" />
        </mxCell>
        <mxCell id="n5NMJhbJn6meRjb42P7D-171" value="1、在Oracle机房独立部署；所有基础服务和应用全部迁移单独部署；&lt;br&gt;2、身份认证依托于谷歌；认证引子集成外部采购的TruU" style="text;html=1;align=center;verticalAlign=middle;whiteSpace=wrap;rounded=0;" vertex="1" parent="1">
          <mxGeometry x="20" y="1300" width="565" height="30" as="geometry" />
        </mxCell>
        <mxCell id="n5NMJhbJn6meRjb42P7D-174" value="" style="edgeStyle=orthogonalEdgeStyle;rounded=0;orthogonalLoop=1;jettySize=auto;html=1;" edge="1" parent="1" source="n5NMJhbJn6meRjb42P7D-172" target="n5NMJhbJn6meRjb42P7D-173">
          <mxGeometry relative="1" as="geometry" />
        </mxCell>
        <mxCell id="n5NMJhbJn6meRjb42P7D-176" value="" style="edgeStyle=orthogonalEdgeStyle;rounded=0;orthogonalLoop=1;jettySize=auto;html=1;" edge="1" parent="1" source="n5NMJhbJn6meRjb42P7D-172" target="n5NMJhbJn6meRjb42P7D-175">
          <mxGeometry relative="1" as="geometry" />
        </mxCell>
        <mxCell id="n5NMJhbJn6meRjb42P7D-172" value="安全网关" style="rounded=1;whiteSpace=wrap;html=1;" vertex="1" parent="1">
          <mxGeometry x="80" y="2186" width="120" height="60" as="geometry" />
        </mxCell>
        <mxCell id="n5NMJhbJn6meRjb42P7D-173" value="Google" style="rounded=1;whiteSpace=wrap;html=1;" vertex="1" parent="1">
          <mxGeometry x="325" y="2186" width="120" height="60" as="geometry" />
        </mxCell>
        <mxCell id="n5NMJhbJn6meRjb42P7D-178" value="" style="edgeStyle=orthogonalEdgeStyle;rounded=0;orthogonalLoop=1;jettySize=auto;html=1;" edge="1" parent="1" source="n5NMJhbJn6meRjb42P7D-175" target="n5NMJhbJn6meRjb42P7D-177">
          <mxGeometry relative="1" as="geometry" />
        </mxCell>
        <mxCell id="n5NMJhbJn6meRjb42P7D-175" value="应用" style="rounded=1;whiteSpace=wrap;html=1;" vertex="1" parent="1">
          <mxGeometry x="80" y="2326" width="120" height="60" as="geometry" />
        </mxCell>
        <mxCell id="n5NMJhbJn6meRjb42P7D-179" style="edgeStyle=orthogonalEdgeStyle;rounded=0;orthogonalLoop=1;jettySize=auto;html=1;" edge="1" parent="1" source="n5NMJhbJn6meRjb42P7D-177" target="n5NMJhbJn6meRjb42P7D-173">
          <mxGeometry relative="1" as="geometry" />
        </mxCell>
        <mxCell id="n5NMJhbJn6meRjb42P7D-177" value="SSO" style="rounded=1;whiteSpace=wrap;html=1;" vertex="1" parent="1">
          <mxGeometry x="325" y="2326" width="120" height="60" as="geometry" />
        </mxCell>
        <mxCell id="n5NMJhbJn6meRjb42P7D-180" value="第一次登录" style="text;html=1;align=center;verticalAlign=middle;whiteSpace=wrap;rounded=0;" vertex="1" parent="1">
          <mxGeometry x="222.5" y="2176" width="75" height="30" as="geometry" />
        </mxCell>
        <mxCell id="n5NMJhbJn6meRjb42P7D-181" value="第二次登录" style="text;html=1;align=center;verticalAlign=middle;whiteSpace=wrap;rounded=0;" vertex="1" parent="1">
          <mxGeometry x="220" y="2316" width="75" height="30" as="geometry" />
        </mxCell>
        <mxCell id="n5NMJhbJn6meRjb42P7D-183" style="edgeStyle=orthogonalEdgeStyle;rounded=0;orthogonalLoop=1;jettySize=auto;html=1;" edge="1" parent="1" source="n5NMJhbJn6meRjb42P7D-182" target="n5NMJhbJn6meRjb42P7D-172">
          <mxGeometry relative="1" as="geometry" />
        </mxCell>
        <mxCell id="n5NMJhbJn6meRjb42P7D-182" value="Actor" style="shape=umlActor;verticalLabelPosition=bottom;verticalAlign=top;html=1;outlineConnect=0;" vertex="1" parent="1">
          <mxGeometry x="125" y="2060" width="30" height="60" as="geometry" />
        </mxCell>
        <mxCell id="n5NMJhbJn6meRjb42P7D-184" value="安全网关是Oracle的？" style="text;html=1;align=center;verticalAlign=middle;whiteSpace=wrap;rounded=0;" vertex="1" parent="1">
          <mxGeometry x="505" y="2110" width="146" height="30" as="geometry" />
        </mxCell>
      </root>
    </mxGraphModel>
  </diagram>
</mxfile>
